<?xml version="1.0" standalone="no"?><!DOCTYPE svg PUBLIC "-//W3C//DTD SVG 1.1//EN" "http://www.w3.org/Graphics/SVG/1.1/DTD/svg11.dtd"><svg t="1654303937252" class="icon" viewBox="0 0 1024 1024" version="1.1" xmlns="http://www.w3.org/2000/svg" p-id="4715" xmlns:xlink="http://www.w3.org/1999/xlink" width="200" height="200"><defs><style type="text/css">@font-face { font-family: feedback-iconfont; src: url("//at.alicdn.com/t/font_1031158_u69w8yhxdu.woff2?t=1630033759944") format("woff2"), url("//at.alicdn.com/t/font_1031158_u69w8yhxdu.woff?t=1630033759944") format("woff"), url("//at.alicdn.com/t/font_1031158_u69w8yhxdu.ttf?t=1630033759944") format("truetype"); }
</style></defs><path d="M706.6112 987.38688h-64.95232l-45.6192-554.752H455.20384c-6.56896-62.76096-23.35232-111.53408-48.4096-145.59232v-32.59392h114.82112c13.1328-113.23904 76.38016-219.78112 168.58112-216.86784 89.63584 2.9184 152.15104 77.35808 166.62528 216.74496h149.6064v732.6976l-299.81696 0.36352zM494.47936 313.79968a36.70016 36.70016 0 0 0 36.736 36.736c20.31104 0 36.73088-16.41984 36.73088-36.73088s-16.41984-36.73088-36.73088-36.73088a36.70016 36.70016 0 0 0-36.736 36.73088z m195.21536-240.45568c-76.98944-2.432-128.80896 86.59968-139.63264 181.10464h278.528c-12.03712-116.52096-64.09728-178.67264-138.89536-181.10464z m155.56096 203.7248c-20.31104 0-36.73088 16.42496-36.73088 36.736s16.41984 36.73088 36.73088 36.73088 36.736-16.41984 36.736-36.73088-16.41984-36.73088-36.736-36.73088z m-278.528 187.1872l42.93632 522.88512-296.04864 0.24576-296.04352-0.24576 42.9312-522.88h96.94208c11.06432-95.60064 64.4608-185.48736 142.30528-182.93248 75.65312 2.432 128.44032 65.19296 140.60544 182.93248h126.36672z m-432.14848 50.11456a30.99136 30.99136 0 0 0 31.01696 31.01696 30.99136 30.99136 0 0 0 31.01184-31.01696 30.99136 30.99136 0 0 0-31.01184-31.01696c-17.152 0-31.01696 13.98784-31.01696 31.01696zM299.264 311.49056c-64.95232-2.06336-108.73856 73.10336-117.8624 152.77056h235.1104c-10.09152-98.2784-54.1184-150.70208-117.248-152.77056z m100.34688 202.88a30.99136 30.99136 0 0 0 31.01184 31.01696 30.99136 30.99136 0 0 0 31.01696-31.01696 30.99136 30.99136 0 0 0-31.01696-31.01696c-17.152 0-31.01184 13.98784-31.01184 31.01696z" p-id="4716"></path></svg>